<svg width="82" height="69" viewBox="0 0 82 69" fill="none" xmlns="http://www.w3.org/2000/svg">
<ellipse cx="41" cy="34.5" rx="41" ry="34.5" fill="white"/>
<path d="M41.2821 12.4071C40.2104 12.589 38.9917 13.3425 38.4558 14.1567C38.2983 14.4078 38.1512 14.6244 38.1407 14.6417C38.1302 14.6504 37.8465 14.5551 37.4998 14.4338C35.3354 13.6457 32.6878 13.6803 30.5865 14.5291C28.6008 15.3259 27.2034 16.6424 26.426 18.4352C26.1423 19.0848 26.0793 19.3706 26.0372 20.2454C25.9742 21.3973 26.1213 22.1422 26.5625 23.0603C27.1509 24.2555 27.277 24.3681 34.4424 30.3009L41.3661 36.0259L41.3241 37.6628C41.3031 38.5636 41.2401 39.3691 41.198 39.4557C41.0509 39.7068 40.5782 39.8541 39.6641 39.9147C38.6345 39.984 38.3613 40.1226 38.3613 40.5903C38.3613 40.7981 38.4348 40.9714 38.5924 41.1013C38.8026 41.2745 38.9181 41.2918 39.6956 41.2658C40.7883 41.2398 41.5553 41.058 42.0385 40.7115C42.816 40.1485 43.0262 39.4383 43.0262 37.351V36.0086L49.7923 30.4222C54.9405 26.1696 56.674 24.6885 57.0313 24.2295C58.7333 22.0123 58.7963 19.362 57.1994 17.1014C56.9997 16.8329 56.4219 16.2527 55.8966 15.8283C55.1401 15.196 54.7619 14.9621 54.0054 14.6417C52.5765 14.0441 51.694 13.8709 50.0865 13.8709C48.9623 13.8795 47.7856 14.0787 46.8295 14.4425C46.5143 14.5637 46.2411 14.6504 46.2306 14.6417C46.2201 14.6244 46.073 14.4078 45.9154 14.1567C45.0539 12.8315 43.1312 12.1127 41.2821 12.4071ZM43.0156 13.8362C43.2573 13.9055 43.604 14.0614 43.8036 14.1827C44.1714 14.4165 44.7072 15.1354 44.7072 15.4125C44.7072 15.4991 44.1609 16.0188 43.4464 16.6078L42.1856 17.6471L40.9144 16.6078C39.7271 15.6291 39.6536 15.5511 39.7061 15.2826C39.9162 14.174 41.6183 13.4291 43.0156 13.8362ZM35.3039 15.3086C35.8503 15.3865 36.4596 15.5598 37.0375 15.7936C37.836 16.1227 38.1196 16.3133 39.7692 17.6471C41.5868 19.1195 41.902 19.336 42.2382 19.336C42.3432 19.336 43.2258 18.6864 44.2239 17.8809C46.2516 16.244 46.882 15.8629 48.1743 15.4991C48.9098 15.2826 49.246 15.2393 50.0655 15.2393C51.3052 15.2306 51.9671 15.3519 53.1123 15.8109C53.7953 16.0881 54.184 16.3219 54.7724 16.7983C55.1821 17.1361 55.5288 17.4652 55.5288 17.5172C55.5288 17.5605 55.4238 17.6038 55.2977 17.6038C54.8459 17.6038 53.1544 17.9416 52.2193 18.2101C51.0005 18.5652 49.8238 19.0848 48.1218 20.0289C45.7368 21.354 44.7807 21.7005 43.0997 21.8477C41.9125 21.943 39.9057 21.8131 38.9602 21.5792C37.941 21.3194 37.3842 21.0595 35.9133 20.1934C33.6649 18.8683 32.173 18.4266 29.5569 18.3226C28.874 18.2967 28.3171 18.2447 28.3171 18.2101C28.3171 18.1754 28.4957 17.9242 28.7164 17.6384C29.6199 16.4952 31.3325 15.5511 32.94 15.3086C33.9591 15.1614 34.2848 15.1614 35.3039 15.3086ZM38.1722 26.6026C38.729 27.027 39.8427 27.8931 40.6412 28.5254C42.2697 29.8332 42.3432 29.9631 41.7654 30.4395C41.4922 30.656 41.3871 30.6907 41.1035 30.6474C40.9144 30.6127 40.5571 30.4222 40.2945 30.223C40.0318 30.0151 38.9602 29.175 37.9095 28.3522C36.1234 26.9491 35.9868 26.8278 35.9868 26.542C35.9868 26.1263 36.323 25.8318 36.7958 25.8318C37.09 25.8318 37.3106 25.9531 38.1722 26.6026Z" fill="#CC0000"/>
<path d="M41.2821 12.4071C40.2104 12.589 38.9917 13.3425 38.4558 14.1567C38.2983 14.4078 38.1512 14.6244 38.1407 14.6417C38.1302 14.6504 37.8465 14.5551 37.4998 14.4338C35.3354 13.6457 32.6878 13.6803 30.5865 14.5291C28.6008 15.3259 27.2034 16.6424 26.426 18.4352C26.1423 19.0848 26.0793 19.3706 26.0372 20.2454C25.9742 21.3973 26.1213 22.1422 26.5625 23.0603C27.1509 24.2555 27.277 24.3681 34.4424 30.3009L41.3661 36.0259L41.3241 37.6628C41.3031 38.5636 41.2401 39.3691 41.198 39.4557C41.0509 39.7068 40.5782 39.8541 39.6641 39.9147C38.6345 39.984 38.3613 40.1226 38.3613 40.5903C38.3613 40.7981 38.4348 40.9714 38.5924 41.1013C38.8026 41.2745 38.9181 41.2918 39.6956 41.2658C40.7883 41.2398 41.5553 41.058 42.0385 40.7115C42.816 40.1485 43.0262 39.4383 43.0262 37.351V36.0086L49.7923 30.4222C54.9405 26.1696 56.674 24.6885 57.0313 24.2295C58.7333 22.0123 58.7963 19.362 57.1994 17.1014C56.9997 16.8329 56.4219 16.2527 55.8966 15.8283C55.1401 15.196 54.7619 14.9621 54.0054 14.6417C52.5765 14.0441 51.694 13.8709 50.0865 13.8709C48.9623 13.8795 47.7856 14.0787 46.8295 14.4425C46.5143 14.5637 46.2411 14.6504 46.2306 14.6417C46.2201 14.6244 46.073 14.4078 45.9154 14.1567C45.0539 12.8315 43.1312 12.1127 41.2821 12.4071ZM43.0156 13.8362C43.2573 13.9055 43.604 14.0614 43.8036 14.1827C44.1714 14.4165 44.7072 15.1354 44.7072 15.4125C44.7072 15.4991 44.1609 16.0188 43.4464 16.6078L42.1856 17.6471L40.9144 16.6078C39.7271 15.6291 39.6536 15.5511 39.7061 15.2826C39.9162 14.174 41.6183 13.4291 43.0156 13.8362ZM35.3039 15.3086C35.8503 15.3865 36.4596 15.5598 37.0375 15.7936C37.836 16.1227 38.1196 16.3133 39.7692 17.6471C41.5868 19.1195 41.902 19.336 42.2382 19.336C42.3432 19.336 43.2258 18.6864 44.2239 17.8809C46.2516 16.244 46.882 15.8629 48.1743 15.4991C48.9098 15.2826 49.246 15.2393 50.0655 15.2393C51.3052 15.2306 51.9671 15.3519 53.1123 15.8109C53.7953 16.0881 54.184 16.3219 54.7724 16.7983C55.1821 17.1361 55.5288 17.4652 55.5288 17.5172C55.5288 17.5605 55.4238 17.6038 55.2977 17.6038C54.8459 17.6038 53.1544 17.9416 52.2193 18.2101C51.0005 18.5652 49.8238 19.0848 48.1218 20.0289C45.7368 21.354 44.7807 21.7005 43.0997 21.8477C41.9125 21.943 39.9057 21.8131 38.9602 21.5792C37.941 21.3194 37.3842 21.0595 35.9133 20.1934C33.6649 18.8683 32.173 18.4266 29.5569 18.3226C28.874 18.2967 28.3171 18.2447 28.3171 18.2101C28.3171 18.1754 28.4957 17.9242 28.7164 17.6384C29.6199 16.4952 31.3325 15.5511 32.94 15.3086C33.9591 15.1614 34.2848 15.1614 35.3039 15.3086ZM38.1722 26.6026C38.729 27.027 39.8427 27.8931 40.6412 28.5254C42.2697 29.8332 42.3432 29.9631 41.7654 30.4395C41.4922 30.656 41.3871 30.6907 41.1035 30.6474C40.9144 30.6127 40.5571 30.4222 40.2945 30.223C40.0318 30.0151 38.9602 29.175 37.9095 28.3522C36.1234 26.9491 35.9868 26.8278 35.9868 26.542C35.9868 26.1263 36.323 25.8318 36.7958 25.8318C37.09 25.8318 37.3106 25.9531 38.1722 26.6026Z" fill="#CC0000"/>
<path d="M16.7914 20.8427C15.8248 21.1026 14.9423 21.7608 14.48 22.5836L14.1858 23.1033L14.1543 31.5218C14.1228 40.7979 14.1123 40.6333 14.7742 41.7679C15.0683 42.2789 15.5622 42.7033 19.9223 46.2717L24.7553 50.2124L24.7448 53.2611V56.3098L25.018 56.4831C25.3752 56.7169 25.6904 56.7169 26.0476 56.4831L26.3208 56.3098V52.9147V49.5282L25.081 48.5235C24.4086 47.9779 22.1812 46.1677 20.1535 44.5048C16.907 41.8458 16.4237 41.4215 16.161 40.9538L15.8668 40.4254V31.8336V23.2505L16.182 22.8694C17.0961 21.8128 18.9347 21.8388 19.7542 22.9301L20.0694 23.3458L20.1009 28.707L20.1325 34.0682L19.7647 34.5619C19.5651 34.8304 19.3445 35.2028 19.2814 35.3933C19.0818 35.8957 19.1974 36.961 19.4916 37.4374C19.9013 38.1043 25.7954 44.2796 26.0791 44.3316C26.678 44.4615 27.2558 44.0111 27.1192 43.5348C27.0772 43.4222 25.7114 41.9151 24.0724 40.1829C22.4334 38.442 21.036 36.9437 20.973 36.8484C20.7734 36.5366 20.8364 35.7831 21.0991 35.4107C21.5403 34.7698 22.612 34.4926 23.421 34.8131C23.8938 34.9949 33.0029 42.7293 33.5912 43.4481C33.8329 43.734 34.1691 44.2363 34.3372 44.5654C34.915 45.7087 34.936 45.8819 34.936 51.2345V56.1626L35.2407 56.4138C35.6295 56.7256 36.0077 56.7342 36.3649 56.4484L36.6276 56.2319L36.5961 50.966L36.554 45.7087L36.2704 44.9465C35.9237 44.0371 35.3248 43.0238 34.7259 42.3742C34.1691 41.7592 25.165 34.1202 24.6082 33.7911C23.9988 33.4273 23.1688 33.2454 22.3703 33.306L21.7084 33.3493L21.6769 28.1354L21.6454 22.9301L21.3512 22.471C20.9309 21.8214 20.4371 21.3971 19.6807 21.0679C19.1028 20.8081 18.9032 20.7735 18.1257 20.7475C17.5794 20.7302 17.0646 20.7648 16.7914 20.8427Z" fill="black"/>
<path d="M62.5576 20.921C61.5174 21.2848 61.0131 21.6659 60.4878 22.4887L60.2041 22.9304L60.1726 28.127L60.1411 33.3237H59.227C57.6826 33.3237 57.6931 33.3237 53.5115 36.8574C48.0902 41.4391 47.4073 42.0367 46.9975 42.5044C46.4512 43.128 45.9048 44.0721 45.5791 44.9468L45.2955 45.709L45.2534 50.9663L45.2219 56.2322L45.4846 56.4487C45.8418 56.7346 46.22 56.7259 46.6088 56.4141L46.9135 56.1629V51.2348C46.9135 45.8822 46.9345 45.709 47.5123 44.5658C47.6804 44.2366 48.0166 43.7343 48.2478 43.4485C48.8361 42.7383 57.9557 34.9953 58.418 34.8134C59.5947 34.3543 60.9921 35.0819 60.9921 36.1645C60.9921 36.381 60.9501 36.6582 60.8975 36.7708C60.845 36.8834 59.4266 38.4337 57.7456 40.2092C54.5411 43.6044 54.4676 43.691 54.8774 44.0981C55.1295 44.3665 55.7389 44.4272 56.0226 44.2193C56.4008 43.9508 62.1058 37.8448 62.3579 37.4377C62.526 37.1692 62.6206 36.8487 62.6521 36.3897C62.7047 35.6275 62.5366 35.1079 62.0427 34.4929L61.7276 34.1032V29.0711C61.7276 26.0311 61.7696 23.8571 61.8326 23.5713C62.0427 22.6532 62.7152 22.1682 63.8183 22.1249C64.6589 22.0989 65.1737 22.2981 65.6675 22.8698L65.9827 23.2509V31.834V40.4258L65.657 40.9974C65.3523 41.5171 64.953 41.8722 61.1917 44.9382C58.9118 46.7916 56.7055 48.5845 56.2957 48.9223L55.5288 49.5285V52.9237V56.3102L55.8019 56.4834C56.1696 56.7259 56.5059 56.7086 56.8631 56.4574L57.1573 56.2495L57.1888 53.1835L57.2098 50.1262L61.9797 46.2287C66.2243 42.7642 66.7917 42.2706 67.0753 41.7855C67.7372 40.6423 67.7267 40.8675 67.6952 31.5482L67.6637 23.1036L67.338 22.5406C66.9388 21.8564 66.3189 21.3281 65.5309 21.0076C64.6904 20.6699 63.3981 20.6265 62.5576 20.921Z" fill="black"/>
</svg>
