<svg width="776" height="672" viewBox="0 0 776 672" fill="none" xmlns="http://www.w3.org/2000/svg">
<ellipse cx="223.977" cy="183.331" rx="223.977" ry="183.331" fill="white"/>
<path d="M225.517 65.9299C219.663 66.8965 213.005 70.9006 210.078 75.2269C209.217 76.5616 208.413 77.7122 208.356 77.8043C208.299 77.8503 206.749 77.344 204.855 76.6997C193.032 72.5114 178.568 72.6955 167.089 77.2059C156.241 81.4402 148.608 88.4359 144.361 97.963C142.811 101.415 142.466 102.934 142.237 107.582C141.893 113.703 142.696 117.661 145.107 122.54C148.321 128.891 149.01 129.49 188.153 161.017L225.976 191.439L225.747 200.137C225.632 204.924 225.288 209.204 225.058 209.664C224.254 210.999 221.672 211.782 216.678 212.104C211.054 212.472 209.561 213.208 209.561 215.694C209.561 216.798 209.963 217.719 210.824 218.409C211.972 219.33 212.603 219.422 216.851 219.284C222.82 219.146 227.009 218.179 229.65 216.338C233.897 213.346 235.045 209.572 235.045 198.481V191.347L272.007 161.661C300.131 139.063 309.601 131.193 311.552 128.753C320.85 116.971 321.195 102.888 312.471 90.8752C311.38 89.4485 308.224 86.3648 305.354 84.1096C301.221 80.7498 299.155 79.5072 295.023 77.8043C287.217 74.6286 282.396 73.7081 273.614 73.7081C267.473 73.7541 261.045 74.8127 255.822 76.7457C254.1 77.39 252.608 77.8503 252.55 77.8043C252.493 77.7122 251.689 76.5616 250.828 75.2269C246.122 68.1851 235.619 64.3651 225.517 65.9299ZM234.987 73.524C236.307 73.8922 238.202 74.7206 239.292 75.365C241.301 76.6076 244.228 80.4277 244.228 81.9004C244.228 82.3607 241.243 85.1222 237.341 88.2518L230.453 93.7748L223.508 88.2518C217.023 83.0511 216.621 82.6368 216.908 81.2101C218.056 75.3189 227.354 71.3608 234.987 73.524ZM192.859 81.3482C195.844 81.7624 199.173 82.6829 202.33 83.9255C206.692 85.6745 208.241 86.687 217.252 93.7748C227.182 101.599 228.903 102.75 230.74 102.75C231.314 102.75 236.135 99.2977 241.588 95.0174C252.665 86.3188 256.109 84.2937 263.168 82.3607C267.186 81.2101 269.023 80.98 273.499 80.98C280.272 80.9339 283.888 81.5783 290.144 84.0176C293.875 85.4904 295.998 86.733 299.213 89.2644C301.451 91.0593 303.345 92.8083 303.345 93.0844C303.345 93.3145 302.771 93.5446 302.082 93.5446C299.614 93.5446 290.374 95.3396 285.265 96.7664C278.608 98.6534 272.179 101.415 262.881 106.432C249.853 113.473 244.63 115.314 235.447 116.097C228.961 116.603 217.998 115.913 212.833 114.67C207.266 113.289 204.224 111.908 196.188 107.306C183.906 100.264 175.756 97.917 161.464 97.3647C157.734 97.2266 154.692 96.9505 154.692 96.7664C154.692 96.5823 155.667 95.2476 156.873 93.7287C161.809 87.6535 171.164 82.6368 179.945 81.3482C185.513 80.5657 187.292 80.5657 192.859 81.3482ZM208.528 141.364C211.57 143.619 217.654 148.222 222.016 151.582C230.912 158.531 231.314 159.222 228.157 161.753C226.665 162.904 226.091 163.088 224.541 162.858C223.508 162.673 221.557 161.661 220.122 160.602C218.687 159.498 212.833 155.033 207.093 150.661C197.336 143.205 196.59 142.561 196.59 141.042C196.59 138.833 198.427 137.268 201.009 137.268C202.617 137.268 203.822 137.912 208.528 141.364Z" fill="#CC0000"/>
<path d="M225.517 65.9299C219.663 66.8965 213.005 70.9006 210.078 75.2269C209.217 76.5616 208.413 77.7122 208.356 77.8043C208.299 77.8503 206.749 77.344 204.855 76.6997C193.032 72.5114 178.568 72.6955 167.089 77.2059C156.241 81.4402 148.608 88.4359 144.361 97.963C142.811 101.415 142.466 102.934 142.237 107.582C141.893 113.703 142.696 117.661 145.107 122.54C148.321 128.891 149.01 129.49 188.153 161.017L225.976 191.439L225.747 200.137C225.632 204.924 225.288 209.204 225.058 209.664C224.254 210.999 221.672 211.782 216.678 212.104C211.054 212.472 209.561 213.208 209.561 215.694C209.561 216.798 209.963 217.719 210.824 218.409C211.972 219.33 212.603 219.422 216.851 219.284C222.82 219.146 227.009 218.179 229.65 216.338C233.897 213.346 235.045 209.572 235.045 198.481V191.347L272.007 161.661C300.131 139.063 309.601 131.193 311.552 128.753C320.85 116.971 321.195 102.888 312.471 90.8752C311.38 89.4485 308.224 86.3648 305.354 84.1096C301.221 80.7498 299.155 79.5072 295.023 77.8043C287.217 74.6286 282.396 73.7081 273.614 73.7081C267.473 73.7541 261.045 74.8127 255.822 76.7457C254.1 77.39 252.608 77.8503 252.55 77.8043C252.493 77.7122 251.689 76.5616 250.828 75.2269C246.122 68.1851 235.619 64.3651 225.517 65.9299ZM234.987 73.524C236.307 73.8922 238.202 74.7206 239.292 75.365C241.301 76.6076 244.228 80.4277 244.228 81.9004C244.228 82.3607 241.243 85.1222 237.341 88.2518L230.453 93.7748L223.508 88.2518C217.023 83.0511 216.621 82.6368 216.908 81.2101C218.056 75.3189 227.354 71.3608 234.987 73.524ZM192.859 81.3482C195.844 81.7624 199.173 82.6829 202.33 83.9255C206.692 85.6745 208.241 86.687 217.252 93.7748C227.182 101.599 228.903 102.75 230.74 102.75C231.314 102.75 236.135 99.2977 241.588 95.0174C252.665 86.3188 256.109 84.2937 263.168 82.3607C267.186 81.2101 269.023 80.98 273.499 80.98C280.272 80.9339 283.888 81.5783 290.144 84.0176C293.875 85.4904 295.998 86.733 299.213 89.2644C301.451 91.0593 303.345 92.8083 303.345 93.0844C303.345 93.3145 302.771 93.5446 302.082 93.5446C299.614 93.5446 290.374 95.3396 285.265 96.7664C278.608 98.6534 272.179 101.415 262.881 106.432C249.853 113.473 244.63 115.314 235.447 116.097C228.961 116.603 217.998 115.913 212.833 114.67C207.266 113.289 204.224 111.908 196.188 107.306C183.906 100.264 175.756 97.917 161.464 97.3647C157.734 97.2266 154.692 96.9505 154.692 96.7664C154.692 96.5823 155.667 95.2476 156.873 93.7287C161.809 87.6535 171.164 82.6368 179.945 81.3482C185.513 80.5657 187.292 80.5657 192.859 81.3482ZM208.528 141.364C211.57 143.619 217.654 148.222 222.016 151.582C230.912 158.531 231.314 159.222 228.157 161.753C226.665 162.904 226.091 163.088 224.541 162.858C223.508 162.673 221.557 161.661 220.122 160.602C218.687 159.498 212.833 155.033 207.093 150.661C197.336 143.205 196.59 142.561 196.59 141.042C196.59 138.833 198.427 137.268 201.009 137.268C202.617 137.268 203.822 137.912 208.528 141.364Z" fill="#CC0000"/>
<path d="M91.7291 110.758C86.4487 112.139 81.6275 115.636 79.1022 120.009L77.4951 122.77L77.3229 167.506C77.1507 216.798 77.0933 215.924 80.7092 221.953C82.3163 224.668 85.0138 226.924 108.833 245.886L135.235 266.827L135.177 283.028V299.228L136.669 300.149C138.621 301.391 140.343 301.391 142.294 300.149L143.786 299.228V281.187V263.191L137.014 257.852C133.341 254.953 121.173 245.333 110.096 236.497C92.3604 222.367 89.7202 220.112 88.2854 217.627L86.6783 214.819V169.163V123.553L88.4002 121.528C93.3935 115.913 103.438 116.051 107.914 121.85L109.636 124.059L109.809 152.548L109.981 181.037L107.972 183.661C106.881 185.087 105.676 187.066 105.332 188.079C104.241 190.748 104.873 196.409 106.48 198.941C108.718 202.485 140.917 235.3 142.466 235.576C145.738 236.267 148.895 233.873 148.148 231.342C147.919 230.744 140.458 222.735 131.504 213.531C122.55 204.28 114.917 196.317 114.572 195.811C113.482 194.154 113.826 190.15 115.261 188.171C117.672 184.765 123.526 183.292 127.945 184.995C130.528 185.962 180.29 227.062 183.504 230.882C184.824 232.401 186.661 235.07 187.579 236.819C190.736 242.894 190.85 243.815 190.85 272.258V298.446L192.515 299.78C194.638 301.437 196.705 301.483 198.656 299.965L200.091 298.814L199.919 270.831L199.689 242.894L198.14 238.844C196.246 234.011 192.974 228.627 189.703 225.175C186.661 221.907 137.473 181.313 134.431 179.564C131.102 177.631 126.568 176.665 122.206 176.987L118.59 177.217L118.418 149.51L118.246 121.85L116.639 119.41C114.343 115.959 111.645 113.703 107.513 111.954C104.356 110.574 103.265 110.39 99.0183 110.252C96.0337 110.159 93.2213 110.344 91.7291 110.758Z" fill="black"/>
<path d="M341.742 111.172C336.06 113.105 333.305 115.13 330.435 119.503L328.886 121.85L328.714 149.465L328.541 177.079H323.548C315.111 177.079 315.168 177.079 292.325 195.857C262.709 220.204 258.979 223.38 256.74 225.865C253.756 229.179 250.771 234.196 248.992 238.844L247.442 242.894L247.213 270.831L247.04 298.814L248.475 299.965C250.427 301.484 252.493 301.437 254.617 299.781L256.281 298.446V272.258C256.281 243.815 256.396 242.894 259.553 236.819C260.471 235.07 262.308 232.401 263.57 230.882C266.784 227.108 316.603 185.962 319.129 184.995C325.557 182.556 333.19 186.422 333.19 192.175C333.19 193.326 332.961 194.799 332.674 195.397C332.387 195.995 324.639 204.234 315.455 213.669C297.95 231.71 297.548 232.171 299.787 234.334C301.164 235.76 304.493 236.083 306.043 234.978C308.109 233.551 339.274 201.104 340.652 198.941C341.57 197.514 342.087 195.811 342.259 193.372C342.546 189.322 341.628 186.56 338.93 183.293L337.208 181.221V154.481C337.208 138.327 337.438 126.774 337.782 125.256C338.93 120.377 342.603 117.8 348.63 117.57C353.221 117.431 356.034 118.49 358.731 121.528L360.453 123.553V169.163V214.819L358.674 217.857C357.009 220.618 354.828 222.505 334.281 238.798C321.826 248.647 309.773 258.174 307.535 259.969L303.345 263.191V281.233V299.228L304.837 300.149C306.846 301.437 308.683 301.345 310.634 300.011L312.241 298.906L312.413 282.613L312.528 266.367L338.586 245.656C361.773 227.246 364.873 224.623 366.422 222.045C370.038 215.97 369.981 217.167 369.809 167.644L369.636 122.77L367.857 119.779C365.676 116.143 362.29 113.335 357.985 111.632C353.394 109.837 346.334 109.607 341.742 111.172Z" fill="black"/>
<ellipse cx="601.796" cy="425.139" rx="174.204" ry="139.606" fill="white"/>
<ellipse cx="236.147" cy="561.42" rx="119.147" ry="110.42" fill="white"/>
<g clip-path="url(#clip0_111_50)">
<path d="M600.08 324.32C599.112 324.739 597.729 326.331 592.924 332.504C589.19 337.28 586.701 340.799 586.286 341.832C584.178 346.971 585.768 352.25 590.539 356.104C597.211 361.467 607.824 361.467 614.53 356.048C619.336 352.166 620.857 346.636 618.575 341.413C617.815 339.626 606.372 325.047 605.335 324.488C603.952 323.762 601.532 323.678 600.08 324.32Z" fill="#CC0000"/>
<path d="M600.115 369.399C597.66 370.432 597.314 371.242 597.314 375.962V379.956H568.275C539.824 379.956 539.167 379.956 537.854 380.515C536.955 380.878 536.229 381.465 535.779 382.191C535.157 383.196 535.088 383.811 535.088 389.732C535.088 395.653 535.157 396.267 535.779 397.273C536.574 398.53 538.545 399.507 540.273 399.507C542.002 399.507 543.972 398.53 544.768 397.273C545.355 396.323 545.459 395.625 545.459 392.245V388.335H571.387H597.314V392.329C597.314 397.049 597.66 397.887 600.08 398.865C602.016 399.675 602.984 399.675 604.92 398.865C607.34 397.887 607.686 397.049 607.686 392.329V388.335H633.613H659.541V392.329C659.541 397.049 659.887 397.887 662.307 398.865C664.243 399.675 665.211 399.675 667.146 398.865C669.774 397.775 669.912 397.329 669.912 389.788C669.912 383.811 669.843 383.196 669.221 382.191C668.771 381.465 668.045 380.878 667.146 380.515C665.833 379.956 665.176 379.956 636.725 379.956H607.686V376.018C607.686 372.974 607.547 371.857 607.132 371.131C605.888 369.036 602.777 368.254 600.115 369.399Z" fill="#CC0000"/>
<path d="M537.024 408.445C534.846 408.891 531.735 410.4 530.213 411.712C529.453 412.383 528.312 413.779 527.724 414.813L526.618 416.684V422.158V427.604L527.897 429.727C529.453 432.269 531.458 433.833 534.673 435.062C536.782 435.872 537.3 435.955 540.273 435.955C543.246 435.955 543.765 435.872 545.874 435.062C549.089 433.833 551.094 432.269 552.65 429.727L553.929 427.604V422.13V416.656L552.65 414.533C550.299 410.735 546.15 408.473 541.034 408.277C539.582 408.221 537.784 408.305 537.024 408.445Z" fill="black"/>
<path d="M599.25 408.445C597.072 408.891 593.961 410.4 592.44 411.712C591.679 412.383 590.539 413.779 589.951 414.813L588.845 416.684V422.158V427.604L590.124 429.727C591.679 432.269 593.685 433.833 596.9 435.062C599.008 435.872 599.527 435.955 602.5 435.955C605.473 435.955 605.992 435.872 608.1 435.062C611.315 433.833 613.321 432.269 614.876 429.727L616.155 427.604V422.13V416.656L614.876 414.533C612.525 410.735 608.377 408.473 603.261 408.277C601.809 408.221 600.011 408.305 599.25 408.445Z" fill="black"/>
<path d="M661.477 408.445C659.299 408.891 656.188 410.4 654.667 411.712C653.906 412.383 652.765 413.779 652.178 414.813L651.071 416.684V422.158V427.604L652.35 429.727C653.906 432.269 655.911 433.833 659.126 435.062C661.235 435.872 661.754 435.955 664.727 435.955C667.7 435.955 668.218 435.872 670.327 435.062C673.542 433.833 675.547 432.269 677.103 429.727L678.382 427.604V422.13V416.656L677.103 414.533C674.752 410.735 670.604 408.473 665.487 408.277C664.035 408.221 662.238 408.305 661.477 408.445Z" fill="black"/>
<path d="M521.329 440.983C518.702 443.245 517.008 445.563 515.625 448.803C514.588 451.261 514.553 451.484 514.415 457.349C514.277 463.047 514.311 463.438 515.003 464.527C515.487 465.309 516.212 465.896 517.111 466.259C518.425 466.79 519.082 466.818 542.382 466.818H566.27L566.132 459.081L565.994 451.317L564.922 448.803C563.539 445.535 561.811 443.189 559.149 440.899L557.005 439.083L555.035 440.368C550.956 443.049 546.289 444.306 540.273 444.306C534.293 444.306 529.591 443.049 525.581 440.396C524.544 439.726 523.611 439.167 523.541 439.167C523.472 439.167 522.47 439.977 521.329 440.983Z" fill="black"/>
<path d="M583.555 440.983C580.928 443.245 579.234 445.563 577.851 448.803L576.78 451.317L576.641 459.081L576.503 466.818H602.5H628.497L628.359 459.081L628.22 451.317L627.149 448.803C625.766 445.535 624.037 443.189 621.375 440.899L619.232 439.083L617.262 440.368C613.182 443.049 608.515 444.306 602.5 444.306C596.519 444.306 591.818 443.049 587.808 440.396C586.77 439.726 585.837 439.167 585.768 439.167C585.699 439.167 584.696 439.977 583.555 440.983Z" fill="black"/>
<path d="M645.782 440.983C643.155 443.245 641.461 445.563 640.078 448.803L639.006 451.317L638.868 459.081L638.73 466.818H662.618C685.918 466.818 686.575 466.79 687.889 466.259C688.787 465.896 689.513 465.309 689.997 464.527C690.689 463.438 690.723 463.047 690.585 457.349C690.447 451.484 690.412 451.261 689.375 448.803C687.992 445.535 686.264 443.189 683.602 440.899L681.459 439.083L679.488 440.368C675.409 443.049 670.742 444.306 664.727 444.306C658.746 444.306 654.044 443.049 650.034 440.396C648.997 439.726 648.064 439.167 647.995 439.167C647.925 439.167 646.923 439.977 645.782 440.983Z" fill="black"/>
</g>
<path d="M200.73 511.291C197.542 511.877 194.027 513.752 192.081 515.939C188.566 519.904 188.027 524.709 190.628 529.162C191.589 530.783 191.8 530.998 201.527 539.123L211.464 547.443V548.908C211.464 551.467 212.495 553.302 214.394 554.045L215.214 554.377V566.369V578.381H209.097C203.237 578.381 202.933 578.4 202.066 578.81C201.48 579.084 200.987 579.533 200.683 580.041C200.214 580.842 200.214 581.154 200.261 594.943C200.331 608.81 200.331 609.025 200.823 609.552C201.081 609.845 201.597 610.275 201.948 610.49C202.581 610.9 202.628 610.9 235.839 610.9C269.027 610.9 269.097 610.9 269.753 610.49C270.105 610.275 270.644 609.709 270.948 609.24C271.441 608.4 271.464 608.185 271.464 603.263V598.146L272.167 597.912C272.964 597.638 274.394 596.408 274.628 595.783C274.769 595.373 274.792 595.373 286.253 595.373H297.714V567.521V539.689L295.769 538.947C287.495 535.763 277.089 534.181 266.847 534.533L263.027 534.67V535.685C263.027 537.658 262.487 537.502 269.073 537.502C278.542 537.502 286.464 538.674 292.511 540.978L294.198 541.642V567.033V592.443H284.706H275.214V590.783V589.123H282.714H290.214V566.76V544.396L288.878 543.888C285.316 542.56 280.816 541.545 276.152 541.056C272.987 540.705 265.37 540.763 262.23 541.154C260.823 541.33 259.652 541.447 259.628 541.408C259.581 541.388 259.722 540.666 259.909 539.806C261.433 532.814 255.597 525.51 247.277 523.967C246.339 523.791 245.425 523.615 245.284 523.576C245.097 523.537 244.98 523.146 244.98 522.56C244.98 518.713 241.323 514.201 236.753 512.365C230.261 509.767 223.769 510.9 218.284 515.568L216.995 516.642L214.862 514.924C213.198 513.595 212.284 513.029 210.737 512.385C207.527 511.056 204.081 510.685 200.73 511.291ZM206.331 514.201C209.073 514.689 210.55 515.47 213.972 518.283L217.089 520.822L220.323 518.185C223.98 515.197 225.362 514.494 228.409 514.084C234.152 513.342 240.058 516.74 241.23 521.447C241.37 522.033 241.464 522.756 241.417 523.049C241.347 523.517 241.206 523.595 239.73 523.83C234.456 524.728 229.628 528.166 227.659 532.482C225.316 537.599 226.628 543.049 231.198 547.052C233.73 549.26 236.636 550.627 240.105 551.232L241.464 551.447L241.511 573.361L241.581 595.275L253.019 595.373L264.456 595.47L264.972 596.252C265.277 596.701 266.003 597.306 266.73 597.717L267.948 598.381V603.224V608.068H235.839H203.73V594.709V581.33L210.034 581.271C216.011 581.213 216.386 581.193 217.019 580.802C217.37 580.588 217.909 580.099 218.214 579.748L218.73 579.103V566.74V554.377L219.222 554.26C220.042 554.045 221.589 552.756 222.034 551.916C222.362 551.349 222.48 550.646 222.48 549.377V547.619L224.167 546.213L225.855 544.787L224.706 543.81C224.073 543.283 223.441 542.834 223.3 542.834C223.159 542.834 222.128 543.595 221.003 544.552L218.964 546.252V548.459C218.964 550.549 218.941 550.685 218.378 551.135C217.605 551.799 216.433 551.799 215.659 551.115C215.144 550.666 215.097 550.431 215.027 548.439L214.933 546.252L204.808 537.756C195.48 529.963 194.589 529.142 193.816 527.853C191.542 524.006 192.362 519.845 195.972 516.838C198.878 514.416 202.417 513.517 206.331 514.201ZM247.581 527.092C251.73 528.302 255.011 531.232 256.112 534.748C256.558 536.174 256.558 538.888 256.112 540.295C254.87 544.181 250.745 547.502 246.198 548.283C241.933 549.025 237.456 547.99 234.362 545.588C231.573 543.4 230.191 540.744 230.191 537.56C230.167 533.947 231.925 530.92 235.253 528.83C238.933 526.486 243.362 525.861 247.581 527.092ZM249.058 552.033C249.128 552.697 249.198 561.31 249.198 571.174V589.123H256.698H264.198V589.592C264.198 589.826 264.128 590.588 264.058 591.252L263.894 592.443H254.566H245.214V571.974V551.486L246.808 551.193C247.675 551.017 248.495 550.881 248.636 550.861C248.8 550.861 248.964 551.349 249.058 552.033ZM285.128 557.814L286.698 557.931L286.652 565.763L286.581 573.595L269.659 573.654L252.714 573.693V565.685V557.677H268.136C276.597 557.677 284.237 557.736 285.128 557.814Z" fill="#CC0000"/>
<path d="M241.136 530.568C238.745 533.635 236.683 536.994 236.191 538.654C235.394 541.291 236.987 544.025 240.128 545.412C240.948 545.783 241.487 545.861 243.339 545.861C245.191 545.861 245.73 545.783 246.55 545.412C248.753 544.455 250.159 542.853 250.605 540.861C250.933 539.455 250.487 538.029 248.847 535.314C247.605 533.224 243.667 527.99 243.339 527.99C243.245 527.99 242.261 529.162 241.136 530.568Z" fill="black"/>
<path d="M260.261 565.724L260.331 567.15L262.159 567.209L263.964 567.267V565.783V564.318H262.089H260.191L260.261 565.724Z" fill="black"/>
<path d="M267.761 565.724L267.831 567.15L269.659 567.209L271.464 567.267V565.783V564.318H269.589H267.691L267.761 565.724Z" fill="black"/>
<path d="M275.261 565.724L275.331 567.15L277.159 567.209L278.964 567.267V565.783V564.318H277.089H275.191L275.261 565.724Z" fill="black"/>
<defs>
<clipPath id="clip0_111_50">
<rect width="177" height="143" fill="white" transform="translate(514 323.818)"/>
</clipPath>
</defs>
</svg>
