<svg width="10" height="11" viewBox="0 0 10 11" fill="none" xmlns="http://www.w3.org/2000/svg">
<path d="M4.74611 0.0236356C3.58009 0.100979 2.49806 0.799222 1.82814 1.90137C1.52345 2.40196 1.31056 3.0293 1.23048 3.66309C1.19923 3.9209 1.20314 4.50957 1.24025 4.78242C1.32814 5.42696 1.57032 6.10157 1.88673 6.57637C2.02736 6.78692 4.92189 10.8754 4.97072 10.9313L5.01173 10.9807L6.54493 8.81719C7.38673 7.62696 8.13282 6.56133 8.20118 6.44746C8.85548 5.35606 8.98634 3.90157 8.54298 2.66407C8.00978 1.18594 6.79493 0.178323 5.35353 0.0214872C5.13478 -0.00214562 5.11134 -0.00214562 4.74611 0.0236356ZM5.36525 1.96582C6.21095 2.142 6.86134 2.85742 7.0215 3.7877C7.05861 4.00684 7.05861 4.37207 7.0215 4.59121C6.85743 5.54512 6.17775 6.27129 5.30861 6.42383C5.09767 6.46035 4.68165 6.44102 4.48829 6.38516C3.76173 6.17032 3.19923 5.55371 3.00392 4.75235C2.94728 4.51602 2.93361 4.03047 2.97657 3.77481C3.13087 2.87676 3.76173 2.16348 4.57032 1.97442C4.78126 1.92715 5.15431 1.92285 5.36525 1.96582Z" fill="#CC0000"/>
<path d="M4.70703 3.54492V3.86719H4.41406H4.12109V4.18945V4.51172H4.41406H4.70703V4.83398V5.15625H5H5.29297V4.83398V4.51172H5.58594H5.87891V4.18945V3.86719H5.58594H5.29297V3.54492V3.22266H5H4.70703V3.54492Z" fill="#CC0000"/>
</svg>
