<svg width="10" height="13" viewBox="0 0 10 13" fill="none" xmlns="http://www.w3.org/2000/svg">
<path d="M4.94186 0C2.21678 0 0 1.89544 0 4.2255C0 7.39462 4.94186 12.0729 4.94186 12.0729C4.94186 12.0729 9.88373 7.39462 9.88373 4.2255C9.88373 1.89544 7.66695 0 4.94186 0ZM4.94186 1.20729C5.71844 1.20729 6.35383 1.75056 6.35383 2.41457C6.35383 3.08461 5.71844 3.62186 4.94186 3.62186C4.16529 3.62186 3.5299 3.08461 3.5299 2.41457C3.5299 1.75056 4.16529 1.20729 4.94186 1.20729ZM4.94186 7.24371C3.76288 7.24371 2.72509 6.73062 2.11794 5.94588C2.13206 5.14907 4.00291 4.70841 4.94186 4.70841C5.88082 4.70841 7.75167 5.14907 7.76579 5.94588C7.15864 6.73062 6.12085 7.24371 4.94186 7.24371Z" fill="#057B11"/>
</svg>
