<svg width="301" height="118" viewBox="0 0 301 118" fill="none" xmlns="http://www.w3.org/2000/svg">
<g clip-path="url(#clip0_160_38)">
<path d="M0 1.73488C5.75511 0.763724 14.4618 0 23.7348 0C35.896 0 43.7896 2.05074 49.2298 6.46808C53.4833 9.85298 56.1928 15.3122 56.1928 22.0655C56.1928 32.3357 48.6893 39.0937 41.5877 41.3707C41.5432 41.384 41.5043 41.4114 41.4767 41.4488C41.4492 41.4863 41.4345 41.5316 41.4349 41.5782V41.6111C41.4344 41.6621 41.4495 41.712 41.478 41.7541C41.5066 41.7962 41.5473 41.8286 41.5947 41.8469C47.1642 44.0767 50.5458 49.4652 52.5691 56.4142C55.3116 66.2224 57.5041 75.3658 59.1491 78.515H48.2264C46.9122 78.5162 45.6306 78.1051 44.5611 77.3392C43.4916 76.5732 42.6877 75.4909 42.2621 74.2438C41.1835 71.0616 39.8745 66.4345 38.3658 60.3365C35.896 50.1865 31.9457 46.9006 23.2578 46.6484H14.6827V72.2096C14.6824 73.0381 14.5193 73.8585 14.2029 74.6238C13.8864 75.3892 13.4227 76.0845 12.8383 76.67C12.2539 77.2556 11.5602 77.7199 10.7969 78.0365C10.0335 78.353 9.21546 78.5156 8.38944 78.515H0V1.73488ZM14.6827 35.9139H24.7876C35.144 35.9139 41.4937 31.0581 41.4937 23.3784C41.4937 14.6569 34.5918 11.0575 25.0438 11.0575C19.5613 11.0575 16.2666 11.4841 14.6733 11.866L14.6827 35.9139Z" fill="#071D41"/>
<path d="M67.4869 0.697755C68.4594 0.697136 69.4225 0.888735 70.3211 1.2616C71.2197 1.63447 72.0363 2.1813 72.7242 2.87085C73.4121 3.56039 73.9578 4.37914 74.3301 5.2803C74.7024 6.18146 74.894 7.14737 74.894 8.12285V44.098C74.894 60.1692 81.9604 68.2684 93.1463 68.2684C104.983 68.2684 111.946 60.254 111.946 44.098V8.12285C111.946 7.14757 112.138 6.18185 112.51 5.28084C112.882 4.37983 113.428 3.5612 114.115 2.87168C114.803 2.18217 115.619 1.63529 116.517 1.26228C117.416 0.889274 118.379 0.697446 119.351 0.697755H126.753V43.5723C126.753 68.8224 112.992 79.9034 92.4695 79.9034C73.3313 79.9034 60.0891 69.678 60.0891 43.4922V0.697755H67.4869Z" fill="#071D41"/>
<path d="M288.813 52.8951C286.658 52.8636 284.599 51.9999 283.063 50.4838L274.758 42.2172C274.463 41.9368 274.072 41.7805 273.666 41.7805C273.26 41.7805 272.869 41.9368 272.575 42.2172L264.242 50.5073C263.499 51.2693 262.6 51.8615 261.608 52.2435C260.616 52.6254 259.554 52.7882 258.494 52.7207H256.867L267.391 63.3445C268.974 64.915 271.111 65.7957 273.338 65.7957C275.565 65.7957 277.702 64.915 279.286 63.3445L289.831 52.8951H288.813Z" fill="#32BCAD"/>
<path d="M258.494 23.758C259.556 23.7026 260.617 23.8737 261.608 24.2601C262.6 24.6466 263.498 25.2395 264.244 25.9997L272.577 34.2922C272.868 34.5792 273.26 34.7399 273.669 34.7399C274.077 34.7399 274.469 34.5792 274.76 34.2922L283.063 26.0304C284.602 24.5144 286.657 23.6394 288.813 23.5813H289.812L279.267 13.1696C277.684 11.6006 275.548 10.7207 273.322 10.7207C271.096 10.7207 268.96 11.6006 267.376 13.1696L256.867 23.758H258.494Z" fill="#32BCAD"/>
<path d="M298.535 32.2697L292.164 25.929C292.02 25.9876 291.866 26.0188 291.71 26.0209H288.813C288.813 26.0209 285.859 26.6856 284.792 27.744L276.487 35.9941C275.736 36.7386 274.723 37.1561 273.667 37.1561C272.611 37.1561 271.598 36.7386 270.847 35.9941L262.512 27.7063C261.443 26.6479 258.489 26.1882 258.489 26.1882H254.867C254.723 26.1851 254.579 26.1564 254.444 26.1034L248.114 32.39C247.345 33.1544 246.734 34.064 246.318 35.0664C245.901 36.0687 245.687 37.1439 245.687 38.2298C245.687 39.3158 245.901 40.391 246.318 41.3933C246.734 42.3957 247.345 43.3053 248.114 44.0697L254.433 50.361C254.568 50.308 254.711 50.2793 254.856 50.2762H258.491C258.491 50.2762 261.445 49.8495 262.514 48.7888L270.85 40.4939C271.612 39.7724 272.621 39.3705 273.67 39.3705C274.718 39.3705 275.727 39.7724 276.49 40.4939L284.794 48.744C285.861 49.8024 288.815 50.4365 288.815 50.4365H291.713C291.868 50.4385 292.022 50.4697 292.166 50.5284L298.537 44.1876C299.318 43.4141 299.937 42.493 300.36 41.4776C300.783 40.4622 301 39.3727 301 38.2723C301 37.1719 300.783 36.0824 300.36 35.067C299.937 34.0516 299.318 33.1304 298.537 32.357" fill="#32BCAD"/>
<path d="M134.842 57.937C134.842 56.9137 135.221 55.9268 135.904 55.1674C136.588 54.408 137.528 53.93 138.543 53.8261C142.131 53.4681 145.734 53.2942 149.339 53.3052C156.601 53.3052 161.794 54.8515 165.084 57.508C168.033 59.8393 169.941 63.3585 169.941 67.7216C169.941 72.0848 168.447 75.7596 165.566 78.2959C161.702 81.8317 155.592 83.5925 148.315 83.5925C146.286 83.5925 145.56 83.5217 143.932 83.2153C143.827 83.1959 143.718 83.2 143.615 83.2274C143.511 83.2547 143.415 83.3046 143.333 83.3734C143.251 83.4423 143.185 83.5284 143.14 83.6258C143.095 83.7231 143.071 83.8293 143.072 83.9366V98.8552C143.072 100.807 140.32 102.391 138.372 102.391H134.847L134.842 57.937ZM143.067 77.518C143.067 77.5831 143.088 77.6464 143.128 77.698C143.167 77.7496 143.223 77.7866 143.286 77.8033C145.034 78.2582 146.063 78.4161 148.587 78.4161C157.595 78.4161 161.843 75.1161 161.843 68.5372C161.843 61.6166 157.019 58.4155 149.33 58.4155C147.758 58.4155 146.369 58.4745 145.198 58.5593C143.337 58.6984 143.067 60.2447 143.067 62.1163V77.518Z" fill="#F44545"/>
<path d="M203.48 102.398C202.627 102.398 201.803 102.089 201.158 101.529C200.513 100.969 200.091 100.195 199.969 99.3478L199.734 97.752H199.532C197.323 100.486 192.788 103.265 186.685 103.265C178.225 103.265 174.336 97.9005 174.336 93.238C174.336 84.9761 182.387 80.085 198.517 80.1109C198.599 80.1112 198.679 80.0955 198.755 80.0645C198.83 80.0335 198.899 79.9879 198.957 79.9303C199.014 79.8728 199.06 79.8043 199.092 79.729C199.123 79.6536 199.14 79.5727 199.14 79.491C199.14 77.2823 198.421 71.3564 189.726 71.4059C187.142 71.4129 184.576 71.8445 182.131 72.6835C181.189 73.0155 180.154 72.9658 179.248 72.545C178.342 72.1242 177.635 71.3654 177.278 70.43C177.225 70.2888 177.225 70.1332 177.278 69.992C177.331 69.8507 177.432 69.7334 177.565 69.6616C181.146 67.6981 185.86 66.6138 190.725 66.6138C203.551 66.6138 206.218 74.8191 206.218 81.5205V93.8839C206.218 96.9836 206.397 99.9418 206.843 102.389L203.48 102.398ZM199.288 85.2637C199.288 85.1009 199.224 84.9446 199.11 84.8287C198.996 84.7127 198.842 84.6462 198.679 84.6438C190.031 84.5236 181.55 86.0699 181.55 92.3918C181.55 96.432 184.662 98.445 188.527 98.445C194.268 98.445 197.692 95.1921 198.914 92.3918C199.159 91.7538 199.285 91.0764 199.288 90.3929V85.2637Z" fill="#F44545"/>
<path d="M219.888 67.4907L229.192 88.314C230.132 90.4896 231.245 93.3725 231.899 95.4114H232.101C232.865 93.33 233.76 90.6476 234.77 88.1042L242.448 69.3199C242.669 68.7791 243.046 68.3166 243.53 67.9909C244.014 67.6653 244.584 67.4912 245.167 67.4907H250.908L239.221 93.1839C233.499 106.261 229.897 111.586 225.15 114.87C223.324 116.166 221.312 117.176 219.183 117.863C218.807 117.982 218.412 118.023 218.02 117.985C217.628 117.946 217.248 117.829 216.902 117.64C216.557 117.451 216.253 117.194 216.008 116.885C215.764 116.575 215.584 116.219 215.479 115.839L214.697 113.022C216.917 112.527 219.026 111.621 220.915 110.349C222.861 109.111 225.504 106.617 227.42 102.879C227.779 102.275 227.981 101.776 227.981 101.425C227.981 101.073 227.847 100.567 227.41 99.685L214.065 71.7124C213.85 71.263 213.753 70.7664 213.782 70.269C213.81 69.7716 213.964 69.2896 214.229 68.868C214.494 68.4465 214.861 68.099 215.295 67.8582C215.73 67.6173 216.219 67.4909 216.716 67.4907H219.888Z" fill="#F44545"/>
</g>
<defs>
<clipPath id="clip0_160_38">
<rect width="301" height="118" fill="white"/>
</clipPath>
</defs>
</svg>
