<svg width="26" height="25" viewBox="0 0 26 25" fill="none" xmlns="http://www.w3.org/2000/svg">
<path d="M22.5457 2.77778V22.2222H2.81821V2.77778H22.5457ZM24.0957 0H1.26819C0.563642 0 0 0.555556 0 1.25V23.75C0 24.3056 0.563642 25 1.26819 25H24.0957C24.6593 25 25.3639 24.3056 25.3639 23.75V1.25C25.3639 0.555556 24.6593 0 24.0957 0ZM11.2728 5.55556H19.7275V8.33333H11.2728V5.55556ZM11.2728 11.1111H19.7275V13.8889H11.2728V11.1111ZM11.2728 16.6667H19.7275V19.4444H11.2728V16.6667ZM5.63642 5.55556H8.45463V8.33333H5.63642V5.55556ZM5.63642 11.1111H8.45463V13.8889H5.63642V11.1111ZM5.63642 16.6667H8.45463V19.4444H5.63642V16.6667Z" fill="#999999"/>
</svg>
