<svg width="28" height="25" viewBox="0 0 28 25" fill="none" xmlns="http://www.w3.org/2000/svg">
<path d="M13.7847 0C6.18796 0 0 5.61125 0 12.5C0 19.3888 6.18796 25 13.7847 25C21.3815 25 27.5694 19.3888 27.5694 12.5C27.5694 5.61125 21.3815 0 13.7847 0ZM13.7847 2.5C19.8915 2.5 24.8125 6.96235 24.8125 12.5C24.8125 18.0377 19.8915 22.5 13.7847 22.5C7.67792 22.5 2.75694 18.0377 2.75694 12.5C2.75694 6.96235 7.67792 2.5 13.7847 2.5ZM12.4062 6.25V8.75H15.1632V6.25H12.4062ZM12.4062 11.25V18.75H15.1632V11.25H12.4062Z" fill="#999999"/>
</svg>
