<svg width="31" height="31" viewBox="0 0 31 31" fill="none" xmlns="http://www.w3.org/2000/svg">
<path d="M14.2168 1.0875C13.7246 1.29258 13.6543 1.47305 13.6543 2.58867V3.59766H12.6875C10.9736 3.59766 10.8418 3.72891 10.8418 5.33672C10.8418 5.96836 10.8857 6.54258 10.9385 6.65742C11.123 7.03477 11.4307 7.125 12.5908 7.125H13.6543V8.10937C13.6543 9.65977 13.7598 9.75 15.5 9.75C17.2402 9.75 17.3457 9.65977 17.3457 8.10937V7.125H18.4092C19.5693 7.125 19.877 7.03477 20.0615 6.65742C20.1143 6.54258 20.1582 5.96836 20.1582 5.33672C20.1582 3.72891 20.0264 3.59766 18.3125 3.59766H17.3457V2.58867C17.3457 1.46484 17.2754 1.28437 16.7656 1.0875C16.3701 0.93164 14.5947 0.939843 14.2168 1.0875Z" fill="#CC0000" fill-opacity="0.69"/>
<path d="M6.99218 6.3457C6.40331 6.50156 6.06054 6.66562 5.57714 7.02656C5.16406 7.34648 1.05078 12.0797 0.804682 12.5391C0.479486 13.1215 0.681635 14.0402 1.22656 14.5242C1.80663 15.0328 0.848627 15 15.5 15C30.1514 15 29.1934 15.0328 29.7734 14.5242C30.3184 14.0402 30.5205 13.1215 30.1953 12.5391C29.9844 12.1453 25.8887 7.3957 25.4756 7.05117C24.7812 6.48515 23.7969 6.19804 22.6982 6.23906L22.0478 6.26367L22.0039 7.01836C21.96 7.68281 21.9248 7.80586 21.6963 8.11758C21.3184 8.60976 20.8877 8.79844 19.9824 8.84765L19.2353 8.88867L19.1914 9.64336C19.1475 10.3078 19.1123 10.4309 18.8838 10.7426C18.3828 11.407 18.2598 11.4316 15.5 11.4316C12.7402 11.4316 12.6172 11.407 12.1162 10.7426C11.8877 10.4309 11.8525 10.3078 11.8086 9.64336L11.7646 8.88867L11.0176 8.84765C10.1123 8.79844 9.68163 8.60976 9.30371 8.11758C9.07519 7.80586 9.04003 7.68281 8.99609 7.01836L8.95214 6.26367L8.20507 6.24726C7.77441 6.23906 7.26464 6.28008 6.99218 6.3457Z" fill="#CC0000" fill-opacity="0.69"/>
<path d="M2.37792 16.7801C2.27245 16.8703 2.30761 28.9453 2.41308 29.3555C2.54491 29.8969 2.8789 30.2988 3.39745 30.5449L3.84569 30.75H7.82714H11.7998L11.8262 27.6492L11.8525 24.5566L12.1338 24.0152C12.5029 23.3262 13.1709 22.7027 13.9092 22.3582C14.4541 22.1121 14.5332 22.0957 15.5 22.0957C16.4668 22.0957 16.5459 22.1121 17.0908 22.3582C17.8291 22.7027 18.4971 23.3262 18.8662 24.0152L19.1475 24.5566L19.1738 27.6492L19.2002 30.75H23.1728H27.1543L27.6025 30.5449C28.1474 30.2906 28.4814 29.8723 28.5957 29.2652C28.6484 28.9863 28.6748 26.591 28.666 22.793L28.6396 16.7637L15.5351 16.7391C8.32812 16.7309 2.40429 16.7473 2.37792 16.7801ZM18.9805 18.798C19.3848 19.241 19.209 19.9793 18.6465 20.1598C18.3037 20.2746 12.7051 20.2828 12.3975 20.1762C12.0195 20.0367 11.8086 19.7578 11.8086 19.3887C11.8086 19.0195 11.9932 18.716 12.2832 18.6094C12.3799 18.5684 13.8828 18.5438 15.6142 18.552L18.7695 18.5684L18.9805 18.798Z" fill="#CC0000" fill-opacity="0.69"/>
</svg>
