<svg width="222" height="62" viewBox="0 0 222 62" fill="none" xmlns="http://www.w3.org/2000/svg">
<path d="M3.98438 52V18.8594H15.5156C18.3594 18.8594 20.9141 19.1953 23.1797 19.8672C25.4453 20.5234 27.3594 21.5312 28.9219 22.8906C30.5 24.2344 31.7031 25.9297 32.5312 27.9766C33.375 30.0078 33.7969 32.3984 33.7969 35.1484C33.7969 37.2422 33.5781 39.1172 33.1406 40.7734C32.7188 42.4141 32.1094 43.8594 31.3125 45.1094C30.5312 46.3594 29.5781 47.4219 28.4531 48.2969C27.3438 49.1562 26.1094 49.8672 24.75 50.4297C23.3906 50.9766 21.9219 51.375 20.3438 51.625C18.7812 51.875 17.1406 52 15.4219 52H3.98438ZM14.4844 44.5H15.1875C16.4062 44.5 17.5156 44.3906 18.5156 44.1719C19.5156 43.9375 20.3672 43.4844 21.0703 42.8125C21.7891 42.1406 22.3359 41.1953 22.7109 39.9766C23.1016 38.7578 23.2969 37.1484 23.2969 35.1484C23.2969 33.3359 23.125 31.8281 22.7812 30.625C22.4375 29.4062 21.9297 28.4375 21.2578 27.7188C20.5859 26.9844 19.7578 26.4688 18.7734 26.1719C17.7891 25.8594 16.6641 25.7031 15.3984 25.7031H14.4844V44.5ZM96.6562 50.9922C95.1875 51.4766 93.6016 51.875 91.8984 52.1875C90.1953 52.5156 88.4219 52.6797 86.5781 52.6797C84.5625 52.6797 82.6406 52.4141 80.8125 51.8828C78.9844 51.3516 77.375 50.5234 75.9844 49.3984C74.5938 48.2734 73.4844 46.8516 72.6562 45.1328C71.8438 43.3984 71.4375 41.3359 71.4375 38.9453C71.4375 37.5859 71.6484 36.3281 72.0703 35.1719C72.4922 34 73.0625 32.9375 73.7812 31.9844C74.5156 31.0312 75.3672 30.1875 76.3359 29.4531C77.3203 28.7188 78.3672 28.1016 79.4766 27.6016C80.6016 27.1016 81.7578 26.7266 82.9453 26.4766C84.1328 26.2109 85.2969 26.0781 86.4375 26.0781C88.2344 26.0781 89.8203 26.2812 91.1953 26.6875C92.5703 27.0781 93.7109 27.6094 94.6172 28.2812C95.5391 28.9531 96.2344 29.7344 96.7031 30.625C97.1719 31.5156 97.4062 32.4609 97.4062 33.4609C97.4062 34.6797 97.1953 35.7188 96.7734 36.5781C96.3672 37.4375 95.8125 38.1641 95.1094 38.7578C94.4219 39.3359 93.6172 39.7969 92.6953 40.1406C91.7891 40.4688 90.8281 40.7266 89.8125 40.9141C88.7969 41.0859 87.7578 41.1953 86.6953 41.2422C85.6484 41.2891 84.6484 41.3125 83.6953 41.3125C83.3672 41.3125 83.0469 41.3125 82.7344 41.3125C82.4375 41.2969 82.1406 41.2891 81.8438 41.2891C81.9688 42.1797 82.2109 42.9297 82.5703 43.5391C82.9453 44.1484 83.4062 44.6484 83.9531 45.0391C84.5156 45.4141 85.1562 45.6875 85.875 45.8594C86.6094 46.0156 87.3906 46.0938 88.2188 46.0938C88.8438 46.0938 89.5078 46.0469 90.2109 45.9531C90.9297 45.8594 91.6484 45.7344 92.3672 45.5781C93.1016 45.4062 93.8281 45.2188 94.5469 45.0156C95.2812 44.7969 95.9844 44.5703 96.6562 44.3359V50.9922ZM81.6328 37.6797C82.0078 37.6641 82.4844 37.6406 83.0625 37.6094C83.6562 37.5781 84.2812 37.5234 84.9375 37.4453C85.5938 37.3672 86.25 37.2578 86.9062 37.1172C87.5625 36.9766 88.1562 36.7969 88.6875 36.5781C89.2188 36.3594 89.6484 36.0859 89.9766 35.7578C90.3047 35.4297 90.4688 35.0312 90.4688 34.5625C90.4688 33.7656 90.1484 33.1328 89.5078 32.6641C88.8828 32.1797 88.0078 31.9375 86.8828 31.9375C86.3672 31.9375 85.8125 32.0156 85.2188 32.1719C84.625 32.3125 84.0703 32.5938 83.5547 33.0156C83.0391 33.4375 82.6016 34.0234 82.2422 34.7734C81.8828 35.5234 81.6797 36.4922 81.6328 37.6797Z" fill="#404040"/>
<path d="M103.969 18.8594H113.719L121.969 31.75L130.219 18.8594H140.203V52H129.469V34L121.734 47.1016H119.461L111.469 34V52H103.969V18.8594ZM153.984 52.6797C152.984 52.6797 152.023 52.5391 151.102 52.2578C150.195 51.9766 149.391 51.5469 148.688 50.9688C147.984 50.3906 147.422 49.6641 147 48.7891C146.594 47.8984 146.391 46.8516 146.391 45.6484C146.391 44.4922 146.578 43.4922 146.953 42.6484C147.328 41.7891 147.828 41.0547 148.453 40.4453C149.094 39.8359 149.836 39.3359 150.68 38.9453C151.539 38.5391 152.445 38.2266 153.398 38.0078C154.352 37.7734 155.328 37.6172 156.328 37.5391C157.344 37.4453 158.328 37.3984 159.281 37.3984C159.938 37.3984 160.57 37.4141 161.18 37.4453C161.789 37.4766 162.359 37.5156 162.891 37.5625C162.859 36.5781 162.672 35.7656 162.328 35.125C161.984 34.4688 161.531 33.9531 160.969 33.5781C160.406 33.1875 159.75 32.9141 159 32.7578C158.25 32.6016 157.461 32.5234 156.633 32.5234C155.867 32.5234 155.078 32.5781 154.266 32.6875C153.469 32.7812 152.688 32.9062 151.922 33.0625C151.156 33.2031 150.422 33.3594 149.719 33.5312C149.031 33.7031 148.422 33.8594 147.891 34V27.4375C148.656 27.2656 149.477 27.1016 150.352 26.9453C151.242 26.7734 152.164 26.625 153.117 26.5C154.07 26.375 155.039 26.2734 156.023 26.1953C157.023 26.1172 158.008 26.0781 158.977 26.0781C160.18 26.0781 161.359 26.1562 162.516 26.3125C163.688 26.4531 164.789 26.6953 165.82 27.0391C166.867 27.3828 167.828 27.8438 168.703 28.4219C169.594 29 170.352 29.7188 170.977 30.5781C171.617 31.4219 172.117 32.4219 172.477 33.5781C172.836 34.7344 173.016 36.0703 173.016 37.5859V52H163.359V47.8047C162.984 48.5703 162.461 49.2578 161.789 49.8672C161.117 50.4609 160.359 50.9688 159.516 51.3906C158.672 51.8125 157.773 52.1328 156.82 52.3516C155.867 52.5703 154.922 52.6797 153.984 52.6797ZM157.945 47.1719C158.383 47.1719 158.883 47.0547 159.445 46.8203C160.023 46.5703 160.562 46.1953 161.062 45.6953C161.578 45.1953 162.008 44.5625 162.352 43.7969C162.711 43.0312 162.891 42.1172 162.891 41.0547H162.117C161.367 41.0547 160.594 41.1328 159.797 41.2891C159.016 41.4453 158.297 41.6797 157.641 41.9922C156.984 42.3047 156.445 42.6875 156.023 43.1406C155.602 43.5938 155.391 44.1172 155.391 44.7109C155.391 45.1797 155.469 45.5703 155.625 45.8828C155.781 46.1953 155.977 46.4531 156.211 46.6562C156.461 46.8438 156.734 46.9766 157.031 47.0547C157.344 47.1328 157.648 47.1719 157.945 47.1719ZM179.953 26.7109H190.078V52H179.953V26.7109ZM185.039 21.5078C184.148 21.5078 183.312 21.4141 182.531 21.2266C181.75 21.0391 181.07 20.7812 180.492 20.4531C179.93 20.125 179.477 19.7266 179.133 19.2578C178.805 18.7891 178.641 18.2734 178.641 17.7109C178.641 17.0859 178.805 16.5391 179.133 16.0703C179.461 15.5859 179.914 15.1875 180.492 14.875C181.07 14.5625 181.75 14.3281 182.531 14.1719C183.312 14.0156 184.156 13.9375 185.062 13.9375C185.969 13.9375 186.812 14.0156 187.594 14.1719C188.391 14.3281 189.078 14.5625 189.656 14.875C190.234 15.1875 190.688 15.5859 191.016 16.0703C191.344 16.5391 191.508 17.0859 191.508 17.7109C191.508 18.2734 191.336 18.7891 190.992 19.2578C190.664 19.7266 190.211 20.125 189.633 20.4531C189.055 20.7812 188.367 21.0391 187.57 21.2266C186.789 21.4141 185.945 21.5078 185.039 21.5078ZM217.359 34.2812C215.797 33.5625 214.266 33.0078 212.766 32.6172C211.281 32.2109 209.977 32.0078 208.852 32.0078C207.664 32.0078 206.82 32.125 206.32 32.3594C205.82 32.5781 205.57 32.9688 205.57 33.5312C205.57 34.0312 205.938 34.4297 206.672 34.7266C207.406 35.0078 208.484 35.3359 209.906 35.7109C211.328 36.0859 212.602 36.5 213.727 36.9531C214.852 37.4062 215.805 37.9688 216.586 38.6406C217.383 39.3125 217.984 40.1172 218.391 41.0547C218.812 41.9922 219.023 43.1406 219.023 44.5C219.023 45.7188 218.789 46.8359 218.32 47.8516C217.852 48.8516 217.141 49.7109 216.188 50.4297C215.234 51.1484 214.031 51.7031 212.578 52.0938C211.125 52.4844 209.414 52.6797 207.445 52.6797C205.695 52.6797 203.938 52.5469 202.172 52.2812C200.406 52.0312 198.625 51.5781 196.828 50.9219V43.6797C198.438 44.3828 200.055 44.9453 201.68 45.3672C203.305 45.7891 204.852 46 206.32 46C208.961 46 210.281 45.4531 210.281 44.3594C210.281 44.1719 210.219 44 210.094 43.8438C209.969 43.6875 209.734 43.5391 209.391 43.3984C209.062 43.2422 208.594 43.0859 207.984 42.9297C207.391 42.7578 206.625 42.5547 205.688 42.3203C204.391 42.0078 203.164 41.6094 202.008 41.125C200.867 40.625 199.867 40.0234 199.008 39.3203C198.164 38.6016 197.492 37.7656 196.992 36.8125C196.508 35.8594 196.266 34.7734 196.266 33.5547C196.266 32.4609 196.492 31.4531 196.945 30.5312C197.414 29.6094 198.109 28.8203 199.031 28.1641C199.969 27.5078 201.125 27 202.5 26.6406C203.891 26.2656 205.5 26.0781 207.328 26.0781C208.391 26.0781 209.406 26.125 210.375 26.2188C211.359 26.3125 212.289 26.4297 213.164 26.5703C214.039 26.6953 214.852 26.8359 215.602 26.9922C216.367 27.1328 217.07 27.2656 217.711 27.3906L217.359 34.2812Z" fill="#CC0000"/>
<path d="M52.6308 25.9005C51.6032 26.1062 50.4346 26.9586 49.9208 27.8796C49.7697 28.1637 49.6287 28.4087 49.6186 28.4282C49.6085 28.438 49.3366 28.3303 49.0041 28.1931C46.9289 27.3015 44.3902 27.3407 42.3754 28.3009C40.4714 29.2023 39.1316 30.6915 38.3861 32.7196C38.1141 33.4544 38.0536 33.7777 38.0133 34.7673C37.9529 36.0704 38.0939 36.9129 38.517 37.9515C39.0812 39.3036 39.2021 39.4309 46.0726 46.1423L52.7114 52.6185L52.6711 54.4702C52.6509 55.4891 52.5905 56.4003 52.5502 56.4983C52.4091 56.7824 51.9558 56.949 51.0794 57.0176C50.0921 57.0959 49.8302 57.2527 49.8302 57.7818C49.8302 58.0169 49.9007 58.2129 50.0518 58.3598C50.2533 58.5558 50.3641 58.5754 51.1096 58.546C52.1573 58.5166 52.8927 58.3108 53.3561 57.9189C54.1016 57.2821 54.303 56.4787 54.303 54.1175V52.5989L60.7907 46.2794C65.727 41.4688 67.3892 39.7934 67.7317 39.2742C69.3637 36.766 69.4242 33.7679 67.8929 31.2108C67.7015 30.907 67.1474 30.2506 66.6437 29.7705C65.9184 29.0553 65.5557 28.7908 64.8304 28.4282C63.4603 27.7522 62.6141 27.5563 61.0728 27.5563C59.9949 27.5661 58.8666 27.7914 57.9498 28.2029C57.6476 28.3401 57.3857 28.438 57.3756 28.4282C57.3656 28.4087 57.2245 28.1637 57.0734 27.8796C56.2473 26.3806 54.4038 25.5674 52.6308 25.9005ZM54.293 27.5171C54.5247 27.5955 54.8571 27.7718 55.0485 27.909C55.4011 28.1735 55.9149 28.9867 55.9149 29.3002C55.9149 29.3982 55.391 29.9861 54.706 30.6523L53.4971 31.828L52.2782 30.6523C51.1398 29.5452 51.0693 29.457 51.1197 29.1533C51.3211 27.8992 52.9531 27.0566 54.293 27.5171ZM46.8986 29.1827C47.4225 29.2708 48.0068 29.4668 48.5609 29.7313C49.3265 30.1036 49.5985 30.3192 51.1801 31.828C52.9229 33.4936 53.2251 33.7385 53.5475 33.7385C53.6482 33.7385 54.4945 33.0037 55.4515 32.0925C57.3958 30.2408 58.0002 29.8097 59.2393 29.3982C59.9445 29.1533 60.2669 29.1043 61.0527 29.1043C62.2414 29.0945 62.876 29.2316 63.9741 29.7509C64.6289 30.0644 65.0017 30.329 65.5658 30.8678C65.9587 31.2499 66.2911 31.6223 66.2911 31.681C66.2911 31.73 66.1904 31.779 66.0695 31.779C65.6363 31.779 64.0144 32.1611 63.1178 32.4648C61.9492 32.8665 60.8209 33.4544 59.189 34.5223C56.9021 36.0214 55.9854 36.4133 54.3736 36.5798C53.2352 36.6876 51.3111 36.5406 50.4044 36.2761C49.4272 35.9822 48.8933 35.6882 47.4829 34.7085C45.3271 33.2095 43.8966 32.7098 41.3881 32.5922C40.7333 32.5628 40.1994 32.504 40.1994 32.4648C40.1994 32.4257 40.3707 32.1415 40.5822 31.8182C41.4486 30.5249 43.0907 29.457 44.632 29.1827C45.6092 29.0161 45.9215 29.0161 46.8986 29.1827ZM49.6488 41.9587C50.1828 42.4388 51.2506 43.4185 52.0162 44.1338C53.5777 45.6132 53.6482 45.7602 53.0942 46.299C52.8322 46.544 52.7315 46.5832 52.4595 46.5342C52.2782 46.495 51.9357 46.2794 51.6838 46.0541C51.4319 45.8189 50.4044 44.8686 49.397 43.9378C47.6844 42.3506 47.5534 42.2134 47.5534 41.8901C47.5534 41.4198 47.8758 41.0867 48.3291 41.0867C48.6112 41.0867 48.8228 41.2239 49.6488 41.9587Z" fill="#CC0000"/>
<path d="M52.6308 25.9005C51.6032 26.1062 50.4346 26.9586 49.9208 27.8796C49.7697 28.1637 49.6287 28.4087 49.6186 28.4282C49.6085 28.438 49.3366 28.3303 49.0041 28.1931C46.9289 27.3015 44.3902 27.3407 42.3754 28.3009C40.4714 29.2023 39.1316 30.6915 38.3861 32.7196C38.1141 33.4544 38.0536 33.7777 38.0133 34.7673C37.9529 36.0704 38.0939 36.9129 38.517 37.9515C39.0812 39.3036 39.2021 39.4309 46.0726 46.1423L52.7114 52.6185L52.6711 54.4702C52.6509 55.4891 52.5905 56.4003 52.5502 56.4983C52.4091 56.7824 51.9558 56.949 51.0794 57.0176C50.0921 57.0959 49.8302 57.2527 49.8302 57.7818C49.8302 58.0169 49.9007 58.2129 50.0518 58.3598C50.2533 58.5558 50.3641 58.5754 51.1096 58.546C52.1573 58.5166 52.8927 58.3108 53.3561 57.9189C54.1016 57.2821 54.303 56.4787 54.303 54.1175V52.5989L60.7907 46.2794C65.727 41.4688 67.3892 39.7934 67.7317 39.2742C69.3637 36.766 69.4242 33.7679 67.8929 31.2108C67.7015 30.907 67.1474 30.2506 66.6437 29.7705C65.9184 29.0553 65.5557 28.7908 64.8304 28.4282C63.4603 27.7522 62.6141 27.5563 61.0728 27.5563C59.9949 27.5661 58.8666 27.7914 57.9498 28.2029C57.6476 28.3401 57.3857 28.438 57.3756 28.4282C57.3656 28.4087 57.2245 28.1637 57.0734 27.8796C56.2473 26.3806 54.4038 25.5674 52.6308 25.9005ZM54.293 27.5171C54.5247 27.5955 54.8571 27.7718 55.0485 27.909C55.4011 28.1735 55.9149 28.9867 55.9149 29.3002C55.9149 29.3982 55.391 29.9861 54.706 30.6523L53.4971 31.828L52.2782 30.6523C51.1398 29.5452 51.0693 29.457 51.1197 29.1533C51.3211 27.8992 52.9531 27.0566 54.293 27.5171ZM46.8986 29.1827C47.4225 29.2708 48.0068 29.4668 48.5609 29.7313C49.3265 30.1036 49.5985 30.3192 51.1801 31.828C52.9229 33.4936 53.2251 33.7385 53.5475 33.7385C53.6482 33.7385 54.4945 33.0037 55.4515 32.0925C57.3958 30.2408 58.0002 29.8097 59.2393 29.3982C59.9445 29.1533 60.2669 29.1043 61.0527 29.1043C62.2414 29.0945 62.876 29.2316 63.9741 29.7509C64.6289 30.0644 65.0017 30.329 65.5658 30.8678C65.9587 31.2499 66.2911 31.6223 66.2911 31.681C66.2911 31.73 66.1904 31.779 66.0695 31.779C65.6363 31.779 64.0144 32.1611 63.1178 32.4648C61.9492 32.8665 60.8209 33.4544 59.189 34.5223C56.9021 36.0214 55.9854 36.4133 54.3736 36.5798C53.2352 36.6876 51.3111 36.5406 50.4044 36.2761C49.4272 35.9822 48.8933 35.6882 47.4829 34.7085C45.3271 33.2095 43.8966 32.7098 41.3881 32.5922C40.7333 32.5628 40.1994 32.504 40.1994 32.4648C40.1994 32.4257 40.3707 32.1415 40.5822 31.8182C41.4486 30.5249 43.0907 29.457 44.632 29.1827C45.6092 29.0161 45.9215 29.0161 46.8986 29.1827ZM49.6488 41.9587C50.1828 42.4388 51.2506 43.4185 52.0162 44.1338C53.5777 45.6132 53.6482 45.7602 53.0942 46.299C52.8322 46.544 52.7315 46.5832 52.4595 46.5342C52.2782 46.495 51.9357 46.2794 51.6838 46.0541C51.4319 45.8189 50.4044 44.8686 49.397 43.9378C47.6844 42.3506 47.5534 42.2134 47.5534 41.8901C47.5534 41.4198 47.8758 41.0867 48.3291 41.0867C48.6112 41.0867 48.8228 41.2239 49.6488 41.9587Z" fill="#CC0000"/>
<path d="M52.6308 25.9005C51.6032 26.1062 50.4346 26.9586 49.9208 27.8796C49.7697 28.1637 49.6287 28.4087 49.6186 28.4282C49.6085 28.438 49.3366 28.3303 49.0041 28.1931C46.9289 27.3015 44.3902 27.3407 42.3754 28.3009C40.4714 29.2023 39.1316 30.6915 38.3861 32.7196C38.1141 33.4544 38.0536 33.7777 38.0133 34.7673C37.9529 36.0704 38.0939 36.9129 38.517 37.9515C39.0812 39.3036 39.2021 39.4309 46.0726 46.1423L52.7114 52.6185L52.6711 54.4702C52.6509 55.4891 52.5905 56.4003 52.5502 56.4983C52.4091 56.7824 51.9558 56.949 51.0794 57.0176C50.0921 57.0959 49.8302 57.2527 49.8302 57.7818C49.8302 58.0169 49.9007 58.2129 50.0518 58.3598C50.2533 58.5558 50.3641 58.5754 51.1096 58.546C52.1573 58.5166 52.8927 58.3108 53.3561 57.9189C54.1016 57.2821 54.303 56.4787 54.303 54.1175V52.5989L60.7907 46.2794C65.727 41.4688 67.3892 39.7934 67.7317 39.2742C69.3637 36.766 69.4242 33.7679 67.8929 31.2108C67.7015 30.907 67.1474 30.2506 66.6437 29.7705C65.9184 29.0553 65.5557 28.7908 64.8304 28.4282C63.4603 27.7522 62.6141 27.5563 61.0728 27.5563C59.9949 27.5661 58.8666 27.7914 57.9498 28.2029C57.6476 28.3401 57.3857 28.438 57.3756 28.4282C57.3656 28.4087 57.2245 28.1637 57.0734 27.8796C56.2473 26.3806 54.4038 25.5674 52.6308 25.9005ZM54.293 27.5171C54.5247 27.5955 54.8571 27.7718 55.0485 27.909C55.4011 28.1735 55.9149 28.9867 55.9149 29.3002C55.9149 29.3982 55.391 29.9861 54.706 30.6523L53.4971 31.828L52.2782 30.6523C51.1398 29.5452 51.0693 29.457 51.1197 29.1533C51.3211 27.8992 52.9531 27.0566 54.293 27.5171ZM46.8986 29.1827C47.4225 29.2708 48.0068 29.4668 48.5609 29.7313C49.3265 30.1036 49.5985 30.3192 51.1801 31.828C52.9229 33.4936 53.2251 33.7385 53.5475 33.7385C53.6482 33.7385 54.4945 33.0037 55.4515 32.0925C57.3958 30.2408 58.0002 29.8097 59.2393 29.3982C59.9445 29.1533 60.2669 29.1043 61.0527 29.1043C62.2414 29.0945 62.876 29.2316 63.9741 29.7509C64.6289 30.0644 65.0017 30.329 65.5658 30.8678C65.9587 31.2499 66.2911 31.6223 66.2911 31.681C66.2911 31.73 66.1904 31.779 66.0695 31.779C65.6363 31.779 64.0144 32.1611 63.1178 32.4648C61.9492 32.8665 60.8209 33.4544 59.189 34.5223C56.9021 36.0214 55.9854 36.4133 54.3736 36.5798C53.2352 36.6876 51.3111 36.5406 50.4044 36.2761C49.4272 35.9822 48.8933 35.6882 47.4829 34.7085C45.3271 33.2095 43.8966 32.7098 41.3881 32.5922C40.7333 32.5628 40.1994 32.504 40.1994 32.4648C40.1994 32.4257 40.3707 32.1415 40.5822 31.8182C41.4486 30.5249 43.0907 29.457 44.632 29.1827C45.6092 29.0161 45.9215 29.0161 46.8986 29.1827ZM49.6488 41.9587C50.1828 42.4388 51.2506 43.4185 52.0162 44.1338C53.5777 45.6132 53.6482 45.7602 53.0942 46.299C52.8322 46.544 52.7315 46.5832 52.4595 46.5342C52.2782 46.495 51.9357 46.2794 51.6838 46.0541C51.4319 45.8189 50.4044 44.8686 49.397 43.9378C47.6844 42.3506 47.5534 42.2134 47.5534 41.8901C47.5534 41.4198 47.8758 41.0867 48.3291 41.0867C48.6112 41.0867 48.8228 41.2239 49.6488 41.9587Z" stroke="black"/>
</svg>
